<svg width="101" height="41" viewBox="0 0 101 41" fill="none" xmlns="http://www.w3.org/2000/svg">
<rect x="0.5" y="0.5" width="100" height="40" rx="20" fill="#A1C398" stroke="#A1C398"/>
<path d="M21.375 28.175H20.8C20.8 26.7917 21.1917 24.2667 21.975 20.6C22.7583 16.9333 23.1917 14.7417 23.275 14.025C23.375 13.2917 23.4333 12.7417 23.45 12.375C21.8833 12.4083 20.6333 12.65 19.7 13.1C19.2167 12.55 18.9167 11.7417 18.8 10.675C19.6167 10.3917 21.0167 10.25 23 10.25L30.875 10.5C31.2583 10.5 31.8667 10.4833 32.7 10.45C32.7667 10.9833 32.8 11.4333 32.8 11.8C32.8 12.5833 32.3083 12.975 31.325 12.975C31.025 12.975 30.55 12.925 29.9 12.825C29.2667 12.725 28.7083 12.6667 28.225 12.65C28.175 13.1833 27.7417 15.35 26.925 19.15C26.125 22.95 25.725 25.7417 25.725 27.525C24.9917 27.9583 23.5417 28.175 21.375 28.175ZM31.7324 23.475C31.7324 21.4083 32.3574 19.8 33.6074 18.65C34.8741 17.5 36.4324 16.925 38.2824 16.925C39.5658 16.925 40.5908 17.2083 41.3574 17.775C42.1408 18.325 42.5324 19.0667 42.5324 20C42.5324 20.6833 42.3241 21.2917 41.9074 21.825C41.4908 22.3583 40.9824 22.7667 40.3824 23.05C39.1158 23.6167 38.0158 23.9583 37.0824 24.075L36.4574 24.15C36.6408 25.25 37.1908 25.8 38.1074 25.8C38.5074 25.8 38.9491 25.7167 39.4324 25.55C39.9158 25.3667 40.2991 25.1833 40.5824 25L41.0074 24.75L41.8074 25.825C41.8074 25.825 41.7158 25.9167 41.5324 26.1C41.4324 26.2 41.1908 26.4 40.8074 26.7C40.4408 26.9833 40.0491 27.2333 39.6324 27.45C39.2324 27.6667 38.7158 27.8583 38.0824 28.025C37.4491 28.2083 36.8158 28.3 36.1824 28.3C34.7658 28.3 33.6658 27.8917 32.8824 27.075C32.1158 26.2417 31.7324 25.0417 31.7324 23.475ZM36.3574 22.5C36.8408 22.4333 37.3241 22.0417 37.8074 21.325C38.2908 20.5917 38.5324 19.9833 38.5324 19.5C38.5324 19 38.3908 18.75 38.1074 18.75C37.6908 18.75 37.3074 19.075 36.9574 19.725C36.6074 20.375 36.4074 21.3 36.3574 22.5ZM51.5711 25.75C51.7711 25.75 52.1378 25.625 52.6711 25.375L53.2211 26.6C52.8211 27 52.1878 27.3833 51.3211 27.75C50.4711 28.1167 49.7211 28.3 49.0711 28.3C48.4211 28.3 47.9128 28.1667 47.5461 27.9C47.1794 27.6167 46.8711 27.1333 46.6211 26.45C46.5211 26.2167 46.3294 25.6833 46.0461 24.85C45.4128 25.6 44.8044 26.75 44.2211 28.3C43.8544 28.3 43.4044 28.2083 42.8711 28.025C42.3378 27.8583 41.9211 27.6667 41.6211 27.45C42.6378 25.7667 43.9128 24.3 45.4461 23.05C44.8794 21.3333 44.4294 20.15 44.0961 19.5C43.9628 19.1667 43.5628 18.6667 42.8961 18L42.9711 17.625C44.1544 17.3083 45.7128 17.1167 47.6461 17.05C47.8128 17.1 48.0044 17.275 48.2211 17.575C48.4378 17.8583 48.6044 18.1917 48.7211 18.575L49.2211 20.325C49.5211 19.875 49.7294 19.5333 49.8461 19.3L50.0961 18.8C50.2628 18.4667 50.3628 18.225 50.3961 18.075C50.4961 17.6417 50.6044 17.275 50.7211 16.975C51.4211 17.0417 52.1128 17.2583 52.7961 17.625L53.1211 17.8C52.3044 19.35 51.1794 20.775 49.7461 22.075C50.4628 24.525 51.0711 25.75 51.5711 25.75ZM59.1668 10.375L65.0668 10.525C65.9168 10.525 66.5751 10.5083 67.0418 10.475C67.0918 10.775 67.1168 11.1417 67.1168 11.575C67.1168 12.0083 67.0001 12.3417 66.7668 12.575C66.5335 12.8083 66.1251 12.925 65.5418 12.925L61.7168 12.625C61.4668 12.625 61.2585 12.6333 61.0918 12.65C61.0585 13.2833 60.7085 15.1333 60.0418 18.2C60.9918 18.1167 61.9418 18.075 62.8918 18.075C63.8418 18.075 64.5335 18.15 64.9668 18.3C64.9001 19.0667 64.7418 19.6833 64.4918 20.15L64.3668 20.4C63.9001 20.25 63.1835 20.175 62.2168 20.175C61.2668 20.175 60.3918 20.2083 59.5918 20.275C58.9751 23.2583 58.6668 25.55 58.6668 27.15V27.5C57.7835 27.9333 56.2335 28.15 54.0168 28.15H53.7418C53.7418 26.6833 54.1085 24.2167 54.8418 20.75C55.5751 17.2833 56.0168 14.8583 56.1668 13.475C56.1668 13.1417 56.0751 12.8 55.8918 12.45C55.7085 12.0833 55.5251 11.8 55.3418 11.6L55.0668 11.325L55.1168 10.75C56.3501 10.5 57.7001 10.375 59.1668 10.375ZM72.1615 18.625C72.1615 19.3583 71.9532 20.5 71.5365 22.05C71.1199 23.5833 70.9115 24.5833 70.9115 25.05C70.9115 25.5167 71.0032 25.75 71.1865 25.75C71.3699 25.75 71.7032 25.6667 72.1865 25.5L72.4115 25.4L72.8615 26.65C72.2949 27.0833 71.5865 27.4667 70.7365 27.8C69.9032 28.1333 69.1449 28.3 68.4615 28.3C67.7782 28.3 67.2365 28.1083 66.8365 27.725C66.4532 27.3417 66.2615 26.7917 66.2615 26.075C66.2615 25.3417 66.4615 24.2333 66.8615 22.75C67.2782 21.25 67.4865 20.3 67.4865 19.9C67.4865 19.2833 67.2699 18.7 66.8365 18.15L66.6365 17.875L66.7115 17.45C67.5782 17.1833 69.2615 17.05 71.7615 17.05C72.0282 17.35 72.1615 17.875 72.1615 18.625ZM70.2865 15.1C69.5365 15.1 68.9449 14.9 68.5115 14.5C68.0949 14.1 67.8865 13.5917 67.8865 12.975C67.8865 12.3417 68.1449 11.8167 68.6615 11.4C69.1949 10.9667 69.8365 10.75 70.5865 10.75C71.3365 10.75 71.9199 10.925 72.3365 11.275C72.7532 11.625 72.9615 12.1167 72.9615 12.75C72.9615 13.3833 72.7032 13.9333 72.1865 14.4C71.6865 14.8667 71.0532 15.1 70.2865 15.1ZM73.4316 23.475C73.4316 21.4083 74.0566 19.8 75.3066 18.65C76.5733 17.5 78.1316 16.925 79.9816 16.925C81.265 16.925 82.29 17.2083 83.0566 17.775C83.84 18.325 84.2316 19.0667 84.2316 20C84.2316 20.6833 84.0233 21.2917 83.6066 21.825C83.19 22.3583 82.6816 22.7667 82.0816 23.05C80.815 23.6167 79.715 23.9583 78.7816 24.075L78.1566 24.15C78.34 25.25 78.89 25.8 79.8066 25.8C80.2066 25.8 80.6483 25.7167 81.1316 25.55C81.615 25.3667 81.9983 25.1833 82.2816 25L82.7066 24.75L83.5066 25.825C83.5066 25.825 83.415 25.9167 83.2316 26.1C83.1316 26.2 82.89 26.4 82.5066 26.7C82.14 26.9833 81.7483 27.2333 81.3316 27.45C80.9316 27.6667 80.415 27.8583 79.7816 28.025C79.1483 28.2083 78.515 28.3 77.8816 28.3C76.465 28.3 75.365 27.8917 74.5816 27.075C73.815 26.2417 73.4316 25.0417 73.4316 23.475ZM78.0566 22.5C78.54 22.4333 79.0233 22.0417 79.5066 21.325C79.99 20.5917 80.2316 19.9833 80.2316 19.5C80.2316 19 80.09 18.75 79.8066 18.75C79.39 18.75 79.0066 19.075 78.6566 19.725C78.3066 20.375 78.1066 21.3 78.0566 22.5Z" fill="#EBECEC"/>
</svg>
