<svg width="93" height="42" viewBox="0 0 93 42" fill="none" xmlns="http://www.w3.org/2000/svg">
<rect x="0.5" y="0.5" width="92" height="41" rx="20.5" stroke="#56ABB1"/>
<path d="M21.375 29.175H20.8C20.8 27.7917 21.1917 25.2667 21.975 21.6C22.7583 17.9333 23.1917 15.7417 23.275 15.025C23.375 14.2917 23.4333 13.7417 23.45 13.375C21.8833 13.4083 20.6333 13.65 19.7 14.1C19.2167 13.55 18.9167 12.7417 18.8 11.675C19.6167 11.3917 21.0167 11.25 23 11.25L30.875 11.5C31.2583 11.5 31.8667 11.4833 32.7 11.45C32.7667 11.9833 32.8 12.4333 32.8 12.8C32.8 13.5833 32.3083 13.975 31.325 13.975C31.025 13.975 30.55 13.925 29.9 13.825C29.2667 13.725 28.7083 13.6667 28.225 13.65C28.175 14.1833 27.7417 16.35 26.925 20.15C26.125 23.95 25.725 26.7417 25.725 28.525C24.9917 28.9583 23.5417 29.175 21.375 29.175ZM31.7324 24.475C31.7324 22.4083 32.3574 20.8 33.6074 19.65C34.8741 18.5 36.4324 17.925 38.2824 17.925C39.5658 17.925 40.5908 18.2083 41.3574 18.775C42.1408 19.325 42.5324 20.0667 42.5324 21C42.5324 21.6833 42.3241 22.2917 41.9074 22.825C41.4908 23.3583 40.9824 23.7667 40.3824 24.05C39.1158 24.6167 38.0158 24.9583 37.0824 25.075L36.4574 25.15C36.6408 26.25 37.1908 26.8 38.1074 26.8C38.5074 26.8 38.9491 26.7167 39.4324 26.55C39.9158 26.3667 40.2991 26.1833 40.5824 26L41.0074 25.75L41.8074 26.825C41.8074 26.825 41.7158 26.9167 41.5324 27.1C41.4324 27.2 41.1908 27.4 40.8074 27.7C40.4408 27.9833 40.0491 28.2333 39.6324 28.45C39.2324 28.6667 38.7158 28.8583 38.0824 29.025C37.4491 29.2083 36.8158 29.3 36.1824 29.3C34.7658 29.3 33.6658 28.8917 32.8824 28.075C32.1158 27.2417 31.7324 26.0417 31.7324 24.475ZM36.3574 23.5C36.8408 23.4333 37.3241 23.0417 37.8074 22.325C38.2908 21.5917 38.5324 20.9833 38.5324 20.5C38.5324 20 38.3908 19.75 38.1074 19.75C37.6908 19.75 37.3074 20.075 36.9574 20.725C36.6074 21.375 36.4074 22.3 36.3574 23.5ZM51.5711 26.75C51.7711 26.75 52.1378 26.625 52.6711 26.375L53.2211 27.6C52.8211 28 52.1878 28.3833 51.3211 28.75C50.4711 29.1167 49.7211 29.3 49.0711 29.3C48.4211 29.3 47.9128 29.1667 47.5461 28.9C47.1794 28.6167 46.8711 28.1333 46.6211 27.45C46.5211 27.2167 46.3294 26.6833 46.0461 25.85C45.4128 26.6 44.8044 27.75 44.2211 29.3C43.8544 29.3 43.4044 29.2083 42.8711 29.025C42.3378 28.8583 41.9211 28.6667 41.6211 28.45C42.6378 26.7667 43.9128 25.3 45.4461 24.05C44.8794 22.3333 44.4294 21.15 44.0961 20.5C43.9628 20.1667 43.5628 19.6667 42.8961 19L42.9711 18.625C44.1544 18.3083 45.7128 18.1167 47.6461 18.05C47.8128 18.1 48.0044 18.275 48.2211 18.575C48.4378 18.8583 48.6044 19.1917 48.7211 19.575L49.2211 21.325C49.5211 20.875 49.7294 20.5333 49.8461 20.3L50.0961 19.8C50.2628 19.4667 50.3628 19.225 50.3961 19.075C50.4961 18.6417 50.6044 18.275 50.7211 17.975C51.4211 18.0417 52.1128 18.2583 52.7961 18.625L53.1211 18.8C52.3044 20.35 51.1794 21.775 49.7461 23.075C50.4628 25.525 51.0711 26.75 51.5711 26.75ZM60.6418 22.425C60.1751 22.425 59.8335 22.4167 59.6168 22.4C58.9501 25.4333 58.6168 27.4667 58.6168 28.5C57.6835 28.9333 56.4585 29.15 54.9418 29.15C54.5251 29.15 54.1251 29.125 53.7418 29.075C53.7418 28.025 54.2001 25.5917 55.1168 21.775C56.0335 17.9417 56.4918 15.5667 56.4918 14.65C56.4918 14.3667 56.3918 14.0417 56.1918 13.675C56.0085 13.3083 55.8168 13.0167 55.6168 12.8L55.3418 12.45L55.4418 11.85C56.0751 11.7333 57.1418 11.6083 58.6418 11.475C60.1585 11.325 61.5501 11.25 62.8168 11.25C64.6835 11.25 66.0668 11.6333 66.9668 12.4C67.8668 13.1667 68.3168 14.2 68.3168 15.5C68.3168 17.5167 67.6668 19.175 66.3668 20.475C65.0835 21.775 63.1751 22.425 60.6418 22.425ZM60.5918 20.275C61.5251 20.275 62.2418 19.7417 62.7418 18.675C63.2585 17.6083 63.5168 16.325 63.5168 14.825C63.5168 13.6083 63.1168 13 62.3168 13L61.5168 13.1C61.5168 13.75 61.0501 16.1417 60.1168 20.275H60.5918ZM74.017 19.625C74.017 20.3583 73.8087 21.5 73.392 23.05C72.9753 24.5833 72.767 25.5833 72.767 26.05C72.767 26.5167 72.8587 26.75 73.042 26.75C73.2253 26.75 73.5587 26.6667 74.042 26.5L74.267 26.4L74.717 27.65C74.1503 28.0833 73.442 28.4667 72.592 28.8C71.7587 29.1333 71.0003 29.3 70.317 29.3C69.6337 29.3 69.092 29.1083 68.692 28.725C68.3087 28.3417 68.117 27.7917 68.117 27.075C68.117 26.3417 68.317 25.2333 68.717 23.75C69.1337 22.25 69.342 21.3 69.342 20.9C69.342 20.2833 69.1253 19.7 68.692 19.15L68.492 18.875L68.567 18.45C69.4337 18.1833 71.117 18.05 73.617 18.05C73.8837 18.35 74.017 18.875 74.017 19.625ZM72.142 16.1C71.392 16.1 70.8003 15.9 70.367 15.5C69.9503 15.1 69.742 14.5917 69.742 13.975C69.742 13.3417 70.0003 12.8167 70.517 12.4C71.0503 11.9667 71.692 11.75 72.442 11.75C73.192 11.75 73.7753 11.925 74.192 12.275C74.6087 12.625 74.817 13.1167 74.817 13.75C74.817 14.3833 74.5587 14.9333 74.042 15.4C73.542 15.8667 72.9087 16.1 72.142 16.1Z" fill="#56ABB1"/>
</svg>
