<svg width="35" height="35" viewBox="0 0 35 35" fill="none" xmlns="http://www.w3.org/2000/svg">
<circle cx="17.5" cy="17.5" r="17" fill="#EBECEC" stroke="#696D6D"/>
<path d="M23.6504 21.3047C23.6504 21.7487 23.6361 22.2643 23.6074 22.8516C23.5931 23.4245 23.5716 24.0046 23.543 24.5918C23.5143 25.1647 23.4785 25.709 23.4355 26.2246C23.3926 26.7546 23.3496 27.1771 23.3066 27.4922L21.8242 27.6855C21.7956 27.4564 21.7669 27.1484 21.7383 26.7617C21.724 26.375 21.7025 25.9596 21.6738 25.5156C21.6595 25.0859 21.6452 24.6419 21.6309 24.1836C21.6309 23.7109 21.6309 23.2669 21.6309 22.8516V9.35938C21.6309 8.91536 21.4232 8.55729 21.0078 8.28516C20.6068 7.9987 19.9336 7.74089 18.9883 7.51172L19.3105 6.7168C19.6686 6.75977 20.0553 6.81706 20.4707 6.88867C20.9004 6.94596 21.3229 7.01758 21.7383 7.10352C22.1536 7.17513 22.5475 7.24674 22.9199 7.31836C23.2923 7.38997 23.6146 7.44727 23.8867 7.49023C23.8581 7.61914 23.8294 7.77669 23.8008 7.96289C23.7721 8.14909 23.7435 8.34245 23.7148 8.54297C23.7005 8.72917 23.6862 8.90104 23.6719 9.05859C23.6576 9.21615 23.6504 9.33073 23.6504 9.40234V16.084C24.2806 16.041 24.9824 15.9837 25.7559 15.9121C26.5293 15.8262 27.2383 15.7259 27.8828 15.6113L27.6895 17.3516C27.4316 17.3372 27.1309 17.3301 26.7871 17.3301C26.4577 17.3301 26.1068 17.3301 25.7344 17.3301C25.3763 17.3301 25.0182 17.3301 24.6602 17.3301C24.3021 17.3301 23.9655 17.3301 23.6504 17.3301V21.3047ZM18.8809 11.0137C18.4512 12.2598 17.8854 13.4629 17.1836 14.623C16.4961 15.7832 15.7012 16.8717 14.7988 17.8887C13.8965 18.9056 12.9082 19.8366 11.834 20.6816C10.7741 21.5267 9.66406 22.2572 8.50391 22.873L7.90234 22.207C8.91927 21.6055 9.87174 20.8965 10.7598 20.0801C11.6621 19.2493 12.4642 18.3757 13.166 17.459C13.8822 16.5423 14.4909 15.6042 14.9922 14.6445C15.5078 13.6849 15.8945 12.7682 16.1523 11.8945C15.9375 11.8945 15.6654 11.9017 15.3359 11.916C15.0208 11.9303 14.6914 11.9447 14.3477 11.959C14.0039 11.959 13.6745 11.9661 13.3594 11.9805C13.0443 11.9948 12.7865 12.002 12.5859 12.002C12.4284 12.002 12.2207 12.0163 11.9629 12.0449C11.7051 12.0736 11.4258 12.1022 11.125 12.1309C10.8385 12.1595 10.5449 12.1953 10.2441 12.2383C9.94336 12.2669 9.67122 12.3027 9.42773 12.3457L8.31055 10.6055C8.49674 10.6341 8.73307 10.6699 9.01953 10.7129C9.30599 10.7415 9.60677 10.7702 9.92188 10.7988C10.237 10.8275 10.5449 10.8561 10.8457 10.8848C11.1608 10.8991 11.4401 10.9062 11.6836 10.9062C12.1992 10.9062 12.7507 10.8991 13.3379 10.8848C13.9395 10.8561 14.5267 10.8203 15.0996 10.7773C15.6868 10.7344 16.2454 10.6771 16.7754 10.6055C17.3197 10.5339 17.7923 10.4551 18.1934 10.3691L18.8809 11.0137Z" fill="#696D6D"/>
</svg>
